<svg width="108" height="100" viewBox="0 0 108 100" fill="none" xmlns="http://www.w3.org/2000/svg">
<path d="M59.1174 29.8917C59.2899 30.1232 59.4623 30.271 59.5214 30.4533C61.0386 35.3153 60.6445 40.2562 59.6839 45.0986C59.5263 45.8868 57.1618 46.6405 55.7775 46.7144C51.6741 46.9262 47.546 46.7932 43.4327 46.7932C31.3046 46.7932 34.9352 46.7981 22.8071 46.7932C18.2258 46.7932 17.482 46.074 17.413 41.4582C17.3736 38.8917 17.4229 36.3203 17.4573 33.7538C17.5017 30.2907 18.4771 29.3055 21.9007 29.3055C33.6642 29.3006 29.6593 29.2809 41.4229 29.3449C42.9105 29.3548 43.945 28.9804 45.0239 27.8818C51.4573 21.3203 58.0041 14.872 64.4721 8.3449C66.0633 6.73899 67.8761 5.90155 70.1421 5.90648C78.2307 5.93111 79.4179 5.87199 87.5066 5.93111C92.8219 5.97052 95.6347 10.335 93.2209 14.6454C92.0977 16.6503 90.3145 17.3942 88.1027 17.3942C80.9007 17.3843 80.5903 17.34 73.3884 17.4483C72.3687 17.4631 71.1273 17.9902 70.3884 18.6947C66.5608 22.34 62.8711 26.1331 59.1174 29.8917Z" fill="black"/>
<path d="M7.48955 68.7488C9.32206 68.9163 11.2679 69.6355 12.8492 71.266C13.9427 72.3941 14.9723 73.5961 16.0511 74.7438C18.5093 77.3547 21.8738 77.335 24.3319 74.6995C25.4698 73.4778 26.5093 72.1182 27.7506 71.0443C32.1102 67.2906 37.5487 68.1379 41.4304 72.9507C42.4058 74.1576 43.5388 75.3793 44.8294 76.0837C47.1201 77.335 49.3368 76.6995 51.1989 74.7931C52.3615 73.6059 53.3812 72.2365 54.6127 71.1527C58.5881 67.6453 63.6225 67.9409 67.3171 71.8128C68.2038 72.7438 68.9772 73.803 69.8935 74.6995C72.7309 77.4729 75.8935 77.3251 78.6028 74.3695C79.7605 73.1084 80.8442 71.7291 82.1447 70.665C85.7309 67.7291 90.6176 68.1232 93.8935 71.4926C94.8886 72.5172 95.8541 73.5813 96.79 74.67C97.9132 75.9803 99.3171 76.5567 100.908 76.6995C102.086 76.803 102.834 77.601 102.79 78.7143C102.746 79.8424 101.785 80.6502 100.559 80.5616C97.5684 80.3498 95.2629 78.7783 93.3221 76.3695C92.0708 74.8128 90.8294 73.2562 88.7851 72.7636C86.7605 72.2759 85.1004 72.8818 83.6324 74.2956C82.7112 75.1823 81.8935 76.197 81.0216 77.1478C76.8097 81.7291 71.3418 81.734 67.1398 77.1527C66.2088 76.1379 65.3467 75.0246 64.3319 74.1182C61.8097 71.8571 58.8639 72.0296 56.4748 74.4877C55.2186 75.7783 54.0708 77.2118 52.726 78.3842C49.0807 81.5567 44.0659 81.2365 40.6817 77.7094C39.662 76.6453 38.726 75.4828 37.6817 74.4532C35.0413 71.8473 31.992 71.9064 29.4009 74.5813C28.4107 75.6059 27.4895 76.6995 26.5093 77.7389C22.726 81.7537 16.7851 81.4877 13.0413 76.936C12.4304 76.197 11.7802 75.4975 11.1447 74.7833C9.99694 73.4828 8.60778 72.7438 6.9526 72.5419C5.46984 72.3645 4.84915 71.7094 4.94275 70.532C5.03142 69.3054 5.74571 68.7389 7.48955 68.7488Z" fill="black" stroke="black" stroke-width="2" stroke-miterlimit="10"/>
<path d="M7.48955 81.9753C9.32206 82.1428 11.2679 82.862 12.8492 84.4926C13.9427 85.6207 14.9723 86.8226 16.0511 87.9704C18.5093 90.5812 21.8738 90.5615 24.3319 87.9261C25.4698 86.7044 26.5093 85.3448 27.7506 84.2709C32.1102 80.5172 37.5487 81.3645 41.4304 86.1773C42.4058 87.3842 43.5388 88.6059 44.8294 89.3103C47.1201 90.5615 49.3368 89.9261 51.1989 88.0197C52.3615 86.8325 53.3812 85.463 54.6127 84.3793C58.5881 80.8719 63.6225 81.1675 67.3171 85.0394C68.2038 85.9704 68.9772 87.0295 69.8935 87.9261C72.7309 90.6995 75.8935 90.5517 78.6028 87.596C79.7605 86.3349 80.8442 84.9556 82.1447 83.8916C85.7309 80.9556 90.6176 81.3497 93.8935 84.7192C94.8886 85.7438 95.8541 86.8078 96.79 87.8965C97.9132 89.2069 99.3171 89.7832 100.908 89.9261C102.086 90.0295 102.834 90.8276 102.79 91.9409C102.746 93.0689 101.785 93.8768 100.559 93.7881C97.5684 93.5763 95.2629 92.0049 93.3221 89.596C92.0708 88.0394 90.8294 86.4827 88.7851 85.9901C86.7605 85.5024 85.1004 86.1083 83.6324 87.5221C82.7112 88.4088 81.8935 89.4236 81.0216 90.3744C76.8097 94.9556 71.3418 94.9606 67.1398 90.3793C66.2088 89.3645 65.3467 88.2512 64.3319 87.3448C61.8097 85.0837 58.8639 85.2561 56.4748 87.7142C55.2186 89.0049 54.0708 90.4384 52.726 91.6108C49.0807 94.7832 44.0659 94.463 40.6817 90.9359C39.662 89.8719 38.726 88.7093 37.6817 87.6798C35.0413 85.0739 31.992 85.133 29.4009 87.8078C28.4107 88.8325 27.4895 89.9261 26.5093 90.9655C22.726 94.9803 16.7851 94.7142 13.0413 90.1625C12.4304 89.4236 11.7802 88.7241 11.1447 88.0098C9.99694 86.7093 8.60778 85.9704 6.9526 85.7684C5.46984 85.5911 4.84915 84.9359 4.94275 83.7586C5.03142 82.532 5.74571 81.9655 7.48955 81.9753Z" fill="black" stroke="black" stroke-width="2" stroke-miterlimit="10"/>
<path d="M99.9499 67.6453C97.4918 67.5813 95.3243 65.8571 93.3834 63.6699C92.6889 62.8916 92.0682 62.0148 91.3046 61.33C88.7529 59.0394 85.6199 59.2561 83.2061 61.7882C81.8022 63.2611 80.5066 64.9212 78.9105 66.0837C75.3243 68.6995 70.6642 68.0591 67.5361 64.7734C66.4524 63.6355 65.4721 62.3842 64.3391 61.3153C61.9204 59.0295 58.7529 59.2118 56.477 61.6552C55.2455 62.9803 54.078 64.4088 52.7283 65.5763C49.1322 68.6896 43.9352 68.2906 40.6494 64.7832C39.4475 63.4975 38.3194 62.0936 36.9893 60.9852C34.7283 59.0985 31.7381 59.3842 29.6642 61.5024C28.4376 62.7537 27.3194 64.1478 26.0238 65.3054C22.1716 68.7635 17.1962 68.4778 13.5755 64.6749C12.4967 63.5419 11.5509 62.2118 10.344 61.2709C9.39821 60.532 8.18639 60.0837 7.02875 59.8177C5.63959 59.4975 4.83171 58.8522 4.9253 57.6404C5.02382 56.3596 5.77259 55.9064 7.31939 55.9556C10.7381 56.064 12.9992 58.2808 15.0731 60.867C17.2554 63.5911 19.8268 64.6059 22.3046 63.3251C23.5312 62.6896 24.6002 61.5517 25.5509 60.4483C27.5608 58.1133 29.7086 56.1921 32.8021 55.9507C35.5706 55.734 37.9943 56.532 40.0041 58.6552C40.9549 59.6601 41.8563 60.7143 42.8071 61.7241C45.413 64.4975 48.7923 64.5123 51.4179 61.7586C52.4327 60.6946 53.4179 59.596 54.4081 58.4975C57.7381 54.8128 64.2159 54.9951 67.6889 59.3645C68.5214 60.4089 69.4179 61.4138 70.3834 62.3103C72.6889 64.4581 75.8465 64.3202 78.0534 62.0246C79.3095 60.7192 80.4228 59.2266 81.7824 58.0788C85.6938 54.7635 90.7233 55.1921 94.2849 59.0049C95.3539 60.1527 96.3095 61.468 97.5066 62.4286C98.3687 63.1182 99.5214 63.5271 100.595 63.7241C101.97 63.9704 102.837 64.596 102.787 65.7882C102.738 66.9606 101.876 67.6453 99.9499 67.6453Z" fill="black" stroke="black" stroke-width="2" stroke-miterlimit="10"/>
<path d="M75.0849 23.5221C81.1046 22.9112 86.6957 28.3201 86.9913 34.4285C87.3115 41.0393 82.2721 46.5073 75.7204 46.7881C69.6317 47.0492 64.0012 42.0245 63.5923 36.1969C63.0849 28.9014 69.144 23.0344 75.0849 23.5221Z" fill="black"/>
</svg>
