<svg width="108" height="100" viewBox="0 0 108 100" fill="none" xmlns="http://www.w3.org/2000/svg">
<path d="M53.2251 3.02457C79.5158 2.98516 100.284 24.6748 99.9985 50.2856C99.7079 76.0295 78.6636 96.6009 53.1611 96.5714C27.0774 96.5418 6.11676 74.9802 6.41725 49.2315C6.70297 23.8226 27.7867 2.86693 53.2251 3.02457ZM68.2448 49.7733C68.2793 41.596 61.5749 34.7635 53.4665 34.7191C44.9936 34.6748 38.1857 41.3448 38.1463 49.729C38.1118 58.0196 44.8655 64.8571 53.1709 64.8324C61.4911 64.8078 68.2054 58.4334 68.2448 49.7733ZM36.5306 61.931C36.5256 61.8719 36.5256 61.8522 36.5207 61.8423C33.9936 58.3546 32.6783 54.4581 32.6044 50.1477C32.5995 49.8078 32.4468 49.7684 32.1709 49.7733C31.1512 49.8078 30.1365 49.8423 29.1168 49.8472C23.6488 49.8768 18.1808 49.9014 12.7128 49.926C12.4862 49.926 12.2596 49.926 11.9985 49.926C11.9985 50.128 11.9985 50.2807 11.9985 50.4384C12.0133 52.8275 12.2695 55.1921 12.7177 57.532C13.8508 63.4433 16.1168 68.8669 19.6734 73.7389C19.8902 74.0344 20.0281 74.0935 20.3335 73.862C21.5158 72.9852 22.7276 72.1477 23.9099 71.2709C27.9838 68.2709 32.0478 65.261 36.1168 62.2561C36.2645 62.1526 36.4074 62.0295 36.5306 61.931ZM86.5207 25.5024C86.4862 25.4187 86.4764 25.3694 86.4517 25.3349C85.2251 23.9113 84.0576 22.4285 82.7522 21.0788C78.1168 16.3004 72.6685 12.7832 66.3187 10.6945C65.9985 10.5911 65.8852 10.6551 65.7867 10.9655C65.2596 12.6354 64.703 14.2955 64.166 15.9655C62.6734 20.5763 61.1907 25.1921 59.6931 29.8029C59.5897 30.1231 59.7374 30.2167 59.9936 30.3054C63.9 31.6797 67.0774 34.059 69.6143 37.3152C69.7966 37.5467 69.9148 37.6009 70.1709 37.4088C71.8015 36.2216 73.4567 35.059 75.0921 33.8669C78.7522 31.2068 82.4074 28.5369 86.0626 25.8669C86.2251 25.7586 86.3729 25.6256 86.5207 25.5024ZM19.8803 25.5763C20.1217 25.7487 20.3335 25.9014 20.5453 26.0541C23.2104 27.9999 25.8754 29.9507 28.5453 31.8916C31.1168 33.7635 33.6931 35.6206 36.2547 37.4975C36.5306 37.6994 36.6537 37.6058 36.8212 37.3891C39.3187 34.1182 42.4911 31.7635 46.3631 30.3546C46.7374 30.2216 46.8015 30.064 46.6783 29.6994C45.7325 26.8522 44.8064 23.9999 43.8754 21.1477C42.7769 17.7881 41.6882 14.4285 40.5897 11.0738C40.5158 10.8423 40.5207 10.5467 40.0774 10.6945C37.2842 11.6502 34.6192 12.8719 32.0872 14.3842C27.7719 16.9507 24.1168 20.2758 20.9493 24.1526C20.5847 24.6058 20.2547 25.0788 19.8803 25.5763ZM40.6044 89.0492C49.1069 91.6502 57.5453 91.6551 66.0084 88.9704C65.969 88.8078 65.9542 88.6994 65.9197 88.6009C65.0971 86.0886 64.2744 83.5763 63.4468 81.0689C62.2251 77.3398 60.9985 73.6108 59.7916 69.8768C59.6586 69.463 59.501 69.394 59.0921 69.527C57.0281 70.1773 54.9099 70.4531 52.7473 70.4137C50.8852 70.3792 49.0724 70.0788 47.299 69.5221C46.964 69.4187 46.8163 69.4926 46.7227 69.8226C46.5601 70.4285 46.3729 71.0246 46.1857 71.6206C44.6537 76.4039 43.1217 81.1822 41.5847 85.9605C41.2695 86.9655 40.9493 87.9753 40.6044 89.0492ZM69.9 61.8324C75.4764 65.8571 81.0281 69.8669 86.6192 73.9014C86.964 73.4285 87.2793 73.0246 87.565 72.596C90.2547 68.5911 92.097 64.2216 93.2645 59.5517C94.0429 56.4384 94.3729 53.2709 94.4517 50.0689C94.4616 49.7241 94.2793 49.6847 94.0133 49.6896C93.0872 49.7142 92.166 49.7438 91.2399 49.7487C85.5995 49.7586 79.9591 49.7586 74.3237 49.7635C74.1709 49.7635 74.0232 49.7783 73.831 49.7832C73.8163 54.2462 72.4911 58.2462 69.9 61.8324Z" fill="black"/>
</svg>
