<svg width="108" height="100" viewBox="0 0 108 100" fill="none" xmlns="http://www.w3.org/2000/svg">
<path d="M100.825 12.6799C100.584 11.6503 99.7068 10.7834 98.7314 10.6848C97.9925 10.6109 97.2536 10.5568 96.5147 10.5469C92.6871 10.5124 88.8595 10.4976 85.0319 10.4779C81.4999 10.4582 77.963 10.4484 74.431 10.4287C73.6871 10.4237 73.6871 10.4188 73.4802 9.69468C73.1403 8.51734 71.9531 7.5469 70.7561 7.46315C69.4359 7.36956 67.9383 8.63064 67.7314 10.01C67.6674 10.4237 67.6378 10.4484 67.2093 10.4435C66.0763 10.4385 64.9383 10.4188 63.8053 10.4287C58.9186 10.4533 54.0319 10.4779 49.1452 10.5173C47.2388 10.5321 45.3275 10.5715 43.4211 10.6208C42.7265 10.6405 42.027 10.6651 41.4408 11.1479C40.4507 11.9656 40.0418 13.3104 40.5098 14.5075C40.8595 15.409 41.4753 16.0691 42.4802 16.2267C42.9186 16.2957 43.3718 16.3006 43.8201 16.3055C45.1699 16.3203 46.5245 16.3154 47.8743 16.3252C51.963 16.3597 56.0566 16.3991 60.1452 16.4287C61.8694 16.4385 63.5935 16.4188 65.3127 16.4139C68.0516 16.4139 70.7856 16.4237 73.5245 16.4188C77.5295 16.4139 81.5295 16.409 85.5344 16.3942C88.697 16.3794 91.8595 16.3548 95.0221 16.3252C96.1896 16.3154 97.3521 16.276 98.5196 16.2464C99.6329 16.2218 100.303 15.5912 100.702 14.6159C100.815 14.3351 100.894 14.0395 100.988 13.7538C100.988 13.537 100.988 13.3154 100.988 13.0986C100.928 12.9607 100.86 12.8228 100.825 12.6799Z" fill="black"/>
<path d="M59.3292 37.5815C60.5607 37.5618 61.6543 37.1529 62.6592 36.4682C64.2159 35.4091 64.8168 33.6012 64.137 31.8426C63.4967 30.1874 62.142 29.3451 60.5016 29.0298C59.3784 28.813 58.2011 28.8377 57.0484 28.818C53.8612 28.7638 50.6789 28.7293 47.4917 28.7047C45.3636 28.6899 43.2356 28.7145 41.1075 28.7047C37.9745 28.6899 34.8464 28.6603 31.7134 28.6406L22.4375 28.6702C22.3932 28.6702 22.3439 28.6702 22.2996 28.6702C22.2947 28.6702 22.2947 28.6702 22.2898 28.6702L18.5755 28.68C18.5213 28.6702 18.4622 28.6751 18.3883 28.68C17.4868 28.7736 16.5853 28.8327 15.6888 28.946C14.3686 29.1135 13.0681 29.3746 11.8366 29.9017C9.04345 31.0938 7.31931 33.1283 6.97448 36.1825C6.82178 37.5421 6.77744 38.9214 6.76759 40.2909C6.74296 43.0052 6.75281 45.7194 6.78729 48.4337C6.81685 50.5175 6.96956 52.5963 6.94985 54.68C6.93508 56.1776 7.37843 57.5076 8.0336 58.8032C8.71833 60.1529 9.7134 61.1874 11.1912 61.6751C11.6444 61.8229 12.1173 61.9214 12.5755 62.0593C12.6691 62.0889 12.7922 62.217 12.7971 62.3007C12.807 63.2909 12.7873 64.281 12.7873 65.2761C12.7922 67.5963 12.7971 69.9214 12.8119 72.2416C12.8316 75.4239 12.8366 78.6111 12.8809 81.7933C12.9104 83.68 12.9893 85.5618 13.0779 87.4485C13.1272 88.5618 13.5213 89.5224 14.3439 90.3303C15.9006 91.8524 17.6543 92.7047 19.8858 92.3007C21.2799 92.0495 22.4425 91.3992 23.3784 90.3401C24.0878 89.5372 24.4671 88.5667 24.7282 87.5421C24.7824 87.3303 24.876 87.1283 24.9499 86.9214C24.9843 86.9263 25.0188 86.9313 25.0533 86.9362C25.0927 87.0741 25.1518 87.2121 25.1715 87.3549C25.2848 88.1431 25.5804 88.8623 25.9843 89.547C27.6691 92.3992 31.61 93.2958 34.3144 91.3894C34.9745 90.9214 35.5459 90.3155 36.1223 89.7391C36.3144 89.547 36.4671 89.2761 36.5361 89.0101C36.674 88.4731 36.807 87.9214 36.8267 87.3746C36.94 84.4239 37.073 81.4682 37.0927 78.5126C37.1321 72.0988 37.1026 65.685 37.1026 59.2712C37.1026 52.1924 37.1075 45.1185 37.1124 38.0396C37.1124 37.9559 37.1272 37.8722 37.137 37.7835C37.4228 37.7835 37.6838 37.7835 37.9449 37.7835C42.2306 37.7687 46.5213 37.7736 50.807 37.7391C53.6395 37.7145 56.4868 37.6258 59.3292 37.5815Z" fill="black"/>
<path d="M92.2321 19.5615C91.9661 19.5615 91.976 19.7438 91.976 19.9261C91.9711 21.3645 91.9612 22.8029 91.9612 24.2463C91.9612 29.133 91.9612 34.0197 91.9612 38.9014C91.9612 44.4088 91.9612 49.9162 91.9612 55.4285C91.9612 55.5714 91.9858 55.7241 91.9415 55.8522C91.9119 55.9408 91.7839 56.0591 91.6952 56.064C90.7248 56.0837 89.7543 56.0837 88.7839 56.0837C86.1533 56.0837 83.5277 56.0886 80.8972 56.0837C77.1533 56.0788 73.4144 56.064 69.6706 56.0591C66.976 56.0541 64.2814 56.0591 61.5868 56.0591C57.7346 56.0591 53.8824 56.0541 50.0351 56.0541C49.8134 56.0541 49.5868 56.0788 49.3257 56.0935C49.3257 51.0049 49.3257 45.9507 49.3257 40.8669C49.1829 40.8669 49.0745 40.8669 48.9661 40.8669C48.0302 40.8719 47.0893 40.8768 46.1533 40.8768C45.2568 40.8768 44.3652 40.862 43.4686 40.8522C43.2863 40.8522 43.1583 40.8669 43.173 41.1182C43.2124 41.7684 43.2321 42.4236 43.2371 43.0788C43.2814 46.8423 43.3208 50.6009 43.375 54.3645C43.3898 55.266 43.4489 56.1724 43.508 57.0738C43.577 58.1477 43.9612 59.0837 44.7494 59.8374C45.0893 60.1625 45.4095 60.5024 45.7297 60.8472C46.0893 61.2364 46.5326 61.4926 47.0499 61.5812C47.7149 61.6945 48.3849 61.8275 49.0548 61.8522C51.5721 61.9359 54.0942 62.0098 56.6115 62.0344C59.7986 62.064 62.9809 62.0394 66.1681 62.0394C70.0499 62.0344 73.9366 62.0344 77.8184 62.0295C80.9809 62.0246 84.1435 62.0344 87.311 61.995C89.173 61.9704 91.0351 61.8768 92.8972 61.7881C93.7395 61.7487 94.6213 61.6847 95.2765 61.1034C95.9809 60.4778 96.5967 59.7487 97.2124 59.0344C97.3996 58.8177 97.5031 58.4876 97.5523 58.197C97.6755 57.4334 97.8036 56.665 97.8282 55.8965C97.9119 52.9655 97.9908 50.0295 98.0105 47.0985C98.0597 40.6551 98.0745 34.2068 98.0991 27.7635C98.109 25.1576 98.0991 22.5517 98.0991 19.9408C98.0991 19.8325 98.0991 19.729 98.0991 19.5763C96.1139 19.5615 94.173 19.5664 92.2321 19.5615Z" fill="black"/>
<path d="M87.6747 87.2957C84.3101 84.2366 80.9456 81.1775 77.5761 78.1233C76.3643 77.0248 75.1328 75.9459 73.9259 74.8474C73.8027 74.7341 73.6845 74.542 73.6845 74.3844C73.6747 71.4829 73.6845 68.5814 73.6894 65.6799C73.6894 65.1725 73.6944 65.1725 73.2018 65.1676C73.0835 65.1676 72.9604 65.1627 72.8421 65.1627C71.182 65.1627 69.5269 65.1627 67.8668 65.1528C67.5909 65.1528 67.6057 65.3105 67.6057 65.4878C67.6057 67.0789 67.6057 68.6701 67.6057 70.2661C67.6057 71.5962 67.6057 72.9262 67.6303 74.2563C67.6352 74.5124 67.5761 74.6898 67.384 74.8523C66.7978 75.3597 66.2215 75.877 65.6451 76.3942C62.6254 79.1036 59.6008 81.808 56.586 84.5223C55.4924 85.5075 54.3742 86.4681 53.3298 87.5026C51.8717 88.941 52.4234 91.3351 54.2954 92.1775C55.0737 92.5272 55.8569 92.5617 56.5958 92.0494C56.9998 91.7686 57.4185 91.5124 57.788 91.1922C60.3988 88.9115 62.9998 86.6159 65.6008 84.3252C66.2116 83.7883 66.8126 83.2317 67.4727 82.6356C67.5022 82.8031 67.5318 82.9065 67.5367 83.01C67.6008 85.1676 67.6599 87.3252 67.7289 89.4829C67.783 91.1873 68.9998 92.3794 70.6697 92.3794C71.9653 92.3794 73.2165 91.4533 73.453 90.276C73.5515 89.7784 73.586 89.2612 73.6008 88.7489C73.6599 86.7785 73.6993 84.8031 73.7486 82.8326C73.7486 82.7834 73.7633 82.739 73.7781 82.6454C73.9308 82.7686 74.049 82.8622 74.1623 82.9607C75.7584 84.3844 77.3397 85.8179 78.9505 87.2267C80.655 88.7243 82.384 90.1922 84.1032 91.675C84.6303 92.1282 85.2067 92.4533 85.9407 92.3844C87.0983 92.276 88.0688 91.8376 88.5417 90.7095C89.0195 89.5617 88.9555 88.473 87.9555 87.5765C87.852 87.4927 87.7732 87.3844 87.6747 87.2957Z" fill="black"/>
<path d="M24.8994 25.478C29.3477 25.5617 33.7615 22.0297 33.9241 16.9459C34.0965 11.5962 30.126 7.57649 24.8206 7.51245C20.2886 7.51738 16.0078 11.2859 15.9536 16.4533C15.9044 21.1627 19.53 25.3794 24.8994 25.478Z" fill="black"/>
<path d="M43.5342 25.6701C44.4258 25.6504 45.3224 25.6652 46.2189 25.6652C47.1352 25.6652 48.0514 25.6652 48.9677 25.6652C49.1943 25.6652 49.3667 25.6356 49.3667 25.3302C49.3519 23.5223 49.3372 21.7095 49.3519 19.9016C49.3519 19.6159 49.2583 19.5371 49.0071 19.5371C47.1746 19.547 45.3421 19.5519 43.5096 19.5568C43.2928 19.5568 43.2337 19.6406 43.2337 19.8524C43.2337 21.1726 43.2189 22.4928 43.2091 23.808C43.2041 24.3204 43.2091 24.8327 43.214 25.345C43.2091 25.5617 43.278 25.675 43.5342 25.6701Z" fill="black"/>
</svg>
