<svg width="108" height="100" viewBox="0 0 108 100" fill="none" xmlns="http://www.w3.org/2000/svg">
<path d="M51.6092 19.7882C53.5353 20.9655 55.8555 19.6108 55.8703 17.2808C55.8949 13.6354 55.8161 9.99012 55.9048 6.34973C55.9442 4.61081 55.4368 3.33002 53.821 2.58618C53.3235 2.58618 52.821 2.58618 52.3235 2.58618C51.1659 3.18717 50.2693 3.98027 50.2693 5.41377C50.2644 9.39899 50.2644 13.3891 50.2693 17.3744C50.2742 18.4088 50.7176 19.2414 51.6092 19.7882Z" fill="black"/>
<path d="M22.3631 51.9554C22.9198 51.0293 22.9444 50.0638 22.4075 49.118C21.8508 48.1327 20.9641 47.6943 19.8508 47.6894C16.2055 47.6845 12.5602 47.7485 8.9198 47.6598C7.17595 47.6155 5.90009 48.1278 5.15625 49.7436C5.15625 50.2411 5.15625 50.7436 5.15625 51.2411C5.75724 52.3988 6.55526 53.2953 7.98876 53.2953C11.974 53.3002 15.9641 53.3052 19.9494 53.2953C20.9888 53.2953 21.8213 52.852 22.3631 51.9554Z" fill="black"/>
<path d="M71.2586 45.3003C71.8349 47.1181 73.2635 48.0393 74.8399 47.5664C76.4606 47.0787 77.1749 45.5811 76.6625 43.7486C73.7364 33.2954 64.032 25.9752 51.0911 25.9604C47.9236 25.9802 43.1995 27.4432 38.9778 30.4235C34.1946 33.7979 31.0074 38.3299 29.4162 43.9703C29.0813 45.1624 29.3226 46.2166 30.2783 47.0146C31.1946 47.7831 32.2438 47.9013 33.3325 47.3644C34.2487 46.9112 34.6428 46.0984 34.9138 45.1673C37.6675 35.793 47.1404 29.9654 56.6625 31.9506C64.1059 33.4974 68.9581 38.0491 71.2586 45.3003Z" fill="black"/>
<path d="M76.709 57.0393C77.2558 55.256 76.1869 53.5713 74.4578 53.325C72.9553 53.1132 71.7632 54.0294 71.2361 55.8028C68.4233 65.2462 59.0292 71.0245 49.4085 69.0245C42.044 67.4875 37.2312 62.9555 34.9159 55.7979C34.3002 53.8964 32.9258 52.9407 31.3248 53.4136C29.6401 53.9112 28.9553 55.4333 29.5169 57.3989C32.4923 67.7486 42.1721 75.0048 53.0489 75.1772C54.8371 74.9309 56.6598 74.8471 58.3987 74.4136C67.7632 72.0885 73.8815 66.2708 76.709 57.0393Z" fill="black"/>
<path d="M41.6445 50.4581C41.6347 56.7684 46.7283 61.9063 53.0189 61.926C59.3736 61.9457 64.5115 56.8275 64.5066 50.4827C64.5017 44.1773 59.3933 39.0689 53.0879 39.064C46.7775 39.059 41.6544 44.1625 41.6445 50.4581Z" fill="black"/>
<path d="M92.0024 60.3153C90.4999 60 89.2831 60.8818 88.628 62.7045C84.8053 73.3055 77.6969 80.8227 67.3521 85.2759C66.4408 85.67 65.4753 85.9409 64.5541 86.3252C63.3078 86.8473 62.6132 88.202 62.894 89.4483C63.1945 90.7882 64.2881 91.6798 65.8841 91.6848C66.096 91.6306 66.5541 91.5468 66.9925 91.3991C73.4162 89.202 79.0122 85.6848 83.7856 80.8621C88.4851 76.1084 91.9038 70.5567 94.0467 64.2168C94.6723 62.3744 93.7758 60.6848 92.0024 60.3153Z" fill="black"/>
<path d="M40.9404 86.0789C31.3296 82.6799 24.1769 76.4434 19.5069 67.3892C18.6399 65.7094 18.034 63.8966 17.3148 62.138C16.832 60.9557 15.7581 60.2168 14.566 60.2612C13.3788 60.3055 12.2705 61.074 12.034 62.2513C11.8961 62.941 11.9552 63.7587 12.1966 64.4237C16.6448 76.8966 25.034 85.6405 37.2606 90.7045C38.2902 91.1282 39.364 91.4385 40.0685 91.6799C41.7483 91.6996 42.8172 90.9163 43.1867 89.6799C43.6547 88.0986 42.8025 86.7341 40.9404 86.0789Z" fill="black"/>
<path d="M14.6695 40.7339C15.9207 40.729 16.9059 39.9605 17.4035 38.5713C21.566 26.9211 29.4724 19.0147 41.1227 14.8423C42.8616 14.2216 43.6645 12.7635 43.1522 11.2019C42.6301 9.62553 41.0291 8.91125 39.2557 9.55164C25.97 14.3349 16.9207 23.3743 12.1325 36.66C11.9847 37.064 11.9256 37.4975 11.832 37.8915C11.9059 38.2462 11.9404 38.5566 12.0389 38.8472C12.4379 39.9851 13.4921 40.7339 14.6695 40.7339Z" fill="black"/>
<path d="M64.4039 14.5764C64.936 14.8326 65.5123 14.9803 66.064 15.1971C77.0985 19.5124 84.6552 27.2168 88.6601 38.3794C89.3399 40.2661 90.7438 41.1084 92.3744 40.5665C93.9803 40.0345 94.6552 38.4286 93.9852 36.5764C89.202 23.3646 80.2069 14.3597 66.9901 9.58133C66.5566 9.42369 66.0936 9.3498 65.8965 9.30054C64.3103 9.31532 63.2463 10.1577 62.9261 11.4532C62.6207 12.6848 63.2266 14.0148 64.4039 14.5764Z" fill="black"/>
<path d="M97.9821 47.6895C96.0855 47.6747 94.184 47.6846 92.2875 47.6846C90.3269 47.6846 88.3663 47.6747 86.4057 47.6846C84.5978 47.6944 83.3564 48.852 83.3712 50.5072C83.3811 52.123 84.6077 53.2855 86.3564 53.2905C90.2481 53.3003 94.1397 53.3052 98.0264 53.2905C99.7505 53.2855 100.997 52.0688 100.987 50.4678C100.972 48.8717 99.721 47.6993 97.9821 47.6895Z" fill="black"/>
<path d="M55.876 83.8177C55.8662 82.0098 54.7036 80.7783 53.0386 80.7931C51.4228 80.8079 50.2701 82.0296 50.2652 83.7882C50.2553 87.6502 50.2553 91.5074 50.2652 95.3695C50.2701 97.1626 51.4672 98.4286 53.1026 98.4138C54.6987 98.3941 55.8662 97.1429 55.876 95.4039C55.8908 93.4729 55.881 91.5419 55.881 89.6158C55.881 87.6749 55.8908 85.7438 55.876 83.8177Z" fill="black"/>
</svg>
