<svg width="15" height="15" viewBox="0 0 15 15" fill="none" xmlns="http://www.w3.org/2000/svg">
<path d="M7.5024 10.9609C7.35063 10.9609 7.20378 10.9323 7.06187 10.8751C6.9192 10.8178 6.80044 10.7415 6.70558 10.6461L1.46929 5.37888C1.2606 5.16895 1.15625 4.90178 1.15625 4.57735C1.15625 4.25292 1.2606 3.98575 1.46929 3.77582C1.67798 3.5659 1.94359 3.46094 2.26612 3.46094C2.58864 3.46094 2.85425 3.5659 3.06294 3.77582L7.5024 8.24147L11.9419 3.77582C12.1506 3.5659 12.4162 3.46094 12.7387 3.46094C13.0612 3.46094 13.3268 3.5659 13.5355 3.77582C13.7442 3.98575 13.8486 4.25292 13.8486 4.57735C13.8486 4.90178 13.7442 5.16895 13.5355 5.37888L8.29923 10.6461C8.1854 10.7606 8.06208 10.8415 7.92928 10.8888C7.79647 10.9369 7.65418 10.9609 7.5024 10.9609Z" fill="#181818"/>
</svg>
