<svg width="72" height="72" viewBox="0 0 72 72" fill="none" xmlns="http://www.w3.org/2000/svg">
<path d="M48.9375 37.6875L46.4906 35.462C37.8 27.5886 32.0625 22.3789 32.0625 16.0228C32.0625 10.8132 36.1463 6.75 41.3438 6.75C44.28 6.75 47.0981 8.11563 48.9375 10.2568C50.7769 8.11563 53.595 6.75 56.5312 6.75C61.7287 6.75 65.8125 10.8132 65.8125 16.0228C65.8125 22.3789 60.075 27.5886 51.3844 35.462L48.9375 37.6875Z" fill="#E99027"/>
<path d="M67.5 51.3591C67.504 52.6448 67.1478 53.9059 66.4718 54.9995C65.7957 56.0931 64.8269 56.9755 63.675 57.5466L63.5512 57.6028L52.6303 62.2547C52.5224 62.3023 52.4104 62.3399 52.2956 62.3672L34.2956 66.8672C34.1173 66.9131 33.9341 66.9367 33.75 66.9375H4.5C3.30653 66.9375 2.16193 66.4634 1.31802 65.6195C0.474106 64.7756 0 63.631 0 62.4375V51.1875C0 49.9941 0.474106 48.8495 1.31802 48.0055C2.16193 47.1616 3.30653 46.6875 4.5 46.6875H12.5691L18.9309 40.3228C19.7651 39.4849 20.7571 38.8206 21.8496 38.3683C22.942 37.9159 24.1132 37.6846 25.2956 37.6875H39.375C40.5635 37.6874 41.7366 37.9563 42.8064 38.474C43.8762 38.9917 44.8149 39.7449 45.5522 40.677C46.2895 41.6091 46.8063 42.6961 47.0638 43.8563C47.3213 45.0166 47.3128 46.2201 47.0391 47.3766L58.8066 44.671C59.831 44.3997 60.904 44.3672 61.943 44.5762C62.9819 44.7851 63.959 45.2298 64.7989 45.876C65.6389 46.5221 66.3192 47.3526 66.7875 48.3032C67.2558 49.2539 67.4996 50.2994 67.5 51.3591ZM63 51.3591C62.9996 50.9871 62.9136 50.6201 62.7485 50.2867C62.5834 49.9534 62.3437 49.6625 62.048 49.4367C61.7523 49.211 61.4086 49.0563 61.0435 48.9849C60.6784 48.9134 60.3018 48.9271 59.9428 49.0247L59.8556 49.0472L41.0119 53.3813C40.8466 53.4182 40.6778 53.4371 40.5084 53.4375H31.5C30.9033 53.4375 30.331 53.2005 29.909 52.7785C29.4871 52.3566 29.25 51.7843 29.25 51.1875C29.25 50.5908 29.4871 50.0185 29.909 49.5965C30.331 49.1746 30.9033 48.9375 31.5 48.9375H39.375C40.2701 48.9375 41.1285 48.5819 41.7615 47.949C42.3944 47.3161 42.75 46.4576 42.75 45.5625C42.75 44.6674 42.3944 43.809 41.7615 43.176C41.1285 42.5431 40.2701 42.1875 39.375 42.1875H25.2956C24.7045 42.1856 24.1188 42.3013 23.5727 42.5277C23.0267 42.7542 22.531 43.0869 22.1147 43.5066L15.75 49.8685V62.4375H33.4687L51.0272 58.0472L61.7147 53.4966C62.1037 53.2916 62.4291 52.9841 62.6557 52.6073C62.8823 52.2304 63.0014 51.7988 63 51.3591Z" fill="#4F4F4F"/>
</svg>
