<svg width="90" height="90" viewBox="0 0 90 90" fill="none" xmlns="http://www.w3.org/2000/svg">
<path d="M61.1719 47.1094L58.1133 44.3275C47.25 34.4857 40.0781 27.9736 40.0781 20.0285C40.0781 13.5165 45.1828 8.4375 51.6797 8.4375C55.35 8.4375 58.8727 10.1445 61.1719 12.821C63.4711 10.1445 66.9937 8.4375 70.6641 8.4375C77.1609 8.4375 82.2656 13.5165 82.2656 20.0285C82.2656 27.9736 75.0938 34.4857 64.2305 44.3275L61.1719 47.1094Z" fill="#009ED0"/>
<path d="M84.375 64.1989C84.38 65.806 83.9348 67.3824 83.0897 68.7494C82.2447 70.1164 81.0336 71.2193 79.5937 71.9332L79.439 72.0035L65.7879 77.8184C65.653 77.8778 65.5129 77.9249 65.3695 77.959L42.8695 83.584C42.6467 83.6413 42.4176 83.6709 42.1875 83.6719H5.625C4.13316 83.6719 2.70242 83.0793 1.64752 82.0244C0.592632 80.9695 0 79.5388 0 78.0469V63.9844C0 62.4926 0.592632 61.0618 1.64752 60.0069C2.70242 58.952 4.13316 58.3594 5.625 58.3594H15.7113L23.6637 50.4036C24.7064 49.3561 25.9464 48.5257 27.3119 47.9603C28.6775 47.3949 30.1416 47.1057 31.6195 47.1094H49.2187C50.7043 47.1092 52.1707 47.4453 53.508 48.0925C54.8452 48.7397 56.0186 49.6811 56.9403 50.8463C57.8619 52.0114 58.5079 53.3701 58.8297 54.8204C59.1516 56.2707 59.141 57.7751 58.7988 59.2207L73.5082 55.8387C74.7887 55.4996 76.13 55.4591 77.4287 55.7202C78.7274 55.9814 79.9487 56.5372 80.9987 57.3449C82.0486 58.1527 82.899 59.1907 83.4844 60.379C84.0697 61.5673 84.3745 62.8742 84.375 64.1989ZM78.75 64.1989C78.7495 63.7338 78.642 63.2752 78.4356 62.8584C78.2292 62.4417 77.9296 62.0781 77.56 61.7959C77.1904 61.5137 76.7608 61.3204 76.3044 61.2311C75.848 61.1418 75.3772 61.1588 74.9285 61.2809L74.8195 61.309L51.2648 66.7266C51.0582 66.7727 50.8472 66.7963 50.6355 66.7969H39.375C38.6291 66.7969 37.9137 66.5006 37.3863 65.9732C36.8588 65.4457 36.5625 64.7303 36.5625 63.9844C36.5625 63.2385 36.8588 62.5231 37.3863 61.9957C37.9137 61.4682 38.6291 61.1719 39.375 61.1719H49.2187C50.3376 61.1719 51.4107 60.7274 52.2018 59.9363C52.993 59.1451 53.4375 58.072 53.4375 56.9532C53.4375 55.8343 52.993 54.7612 52.2018 53.9701C51.4107 53.1789 50.3376 52.7344 49.2187 52.7344H31.6195C30.8806 52.732 30.1485 52.8766 29.4659 53.1597C28.7833 53.4427 28.1638 53.8586 27.6434 54.3832L19.6875 62.3356V78.0469H41.8359L63.784 72.559L77.1433 66.8707C77.6296 66.6146 78.0364 66.2301 78.3196 65.7591C78.6029 65.2881 78.7517 64.7485 78.75 64.1989Z" fill="#4F4F4F"/>
</svg>
