<svg width="35" height="35" viewBox="0 0 35 35" fill="none" xmlns="http://www.w3.org/2000/svg">
<circle cx="17.5" cy="17.5" r="17.5" fill="#F2F2F2"/>
<mask id="mask0_71_9994" style="mask-type:luminance" maskUnits="userSpaceOnUse" x="9" y="8" width="18" height="18">
<path d="M14.2726 8.06232C13.315 8.10752 12.6609 8.26091 12.0894 8.48486C11.4977 8.71551 10.9962 9.02462 10.4973 9.5256C9.99776 10.0269 9.691 10.5293 9.4621 11.1215C9.24048 11.6945 9.0903 12.3489 9.04801 13.3071C9.00603 14.2671 8.9964 14.5733 9.00108 17.0172C9.00574 19.4609 9.01653 19.7676 9.0623 20.7279C9.10808 21.6852 9.26089 22.339 9.48484 22.9108C9.71579 23.5025 10.0246 24.0037 10.5258 24.503C11.0268 25.0022 11.5295 25.3087 12.1221 25.5379C12.6945 25.7592 13.3491 25.91 14.307 25.952C15.267 25.9942 15.5734 26.0036 18.0168 25.9989C20.4613 25.9942 20.7677 25.9835 21.7277 25.938C22.6853 25.8922 23.3388 25.7388 23.9109 25.5154C24.5026 25.2839 25.0041 24.9757 25.503 24.4744C26.002 23.9734 26.3087 23.4707 26.5376 22.8782C26.7593 22.3057 26.91 21.6511 26.9517 20.6938C26.9937 19.7332 27.0036 19.4264 26.9989 16.9828C26.9943 14.5389 26.9832 14.2327 26.9377 13.273C26.8922 12.3148 26.7388 11.6613 26.5152 11.0892C26.2839 10.4975 25.9754 9.99654 25.4745 9.49702C24.9735 8.99809 24.4708 8.69073 23.8782 8.46241C23.3055 8.24079 22.6512 8.08973 21.6933 8.04833C20.7333 8.00575 20.4269 7.99643 17.9827 8.00109C15.539 8.00575 15.2326 8.01625 14.2726 8.06232ZM14.3776 24.3321C13.5002 24.2939 13.0237 24.1481 12.7062 24.0259C12.2857 23.8632 11.9856 23.6681 11.6698 23.3546C11.3546 23.04 11.1589 22.7408 10.9947 22.3212C10.8714 22.0036 10.723 21.5277 10.6819 20.6503C10.6372 19.7017 10.627 19.4171 10.6227 17.014C10.618 14.6115 10.6267 14.3269 10.6682 13.3774C10.7058 12.5005 10.8524 12.0235 10.9743 11.7062C11.137 11.2851 11.3315 10.9857 11.6456 10.6699C11.9602 10.354 12.2594 10.159 12.6793 9.99479C12.9966 9.87085 13.4725 9.72359 14.3496 9.6819C15.2988 9.63698 15.5831 9.62736 17.9856 9.6227C20.3886 9.61803 20.6732 9.62649 21.6227 9.66819C22.4995 9.70639 22.9766 9.85161 23.2936 9.97437C23.7144 10.1371 24.0144 10.331 24.3299 10.6456C24.6454 10.9603 24.8411 11.2589 25.0053 11.6797C25.1292 11.9961 25.2765 12.4725 25.3179 13.3494C25.3631 14.2986 25.3733 14.5832 25.3776 16.9857C25.3823 19.3888 25.3736 19.6734 25.3319 20.6223C25.2937 21.4997 25.1481 21.9765 25.0257 22.2944C24.863 22.7146 24.6685 23.0146 24.3541 23.3304C24.0398 23.6451 23.7406 23.8413 23.3204 24.0055C23.0037 24.1291 22.5273 24.2767 21.6507 24.3184C20.7015 24.363 20.4172 24.3732 18.0139 24.3776C15.6114 24.3823 15.3271 24.3732 14.3776 24.3321ZM21.7146 12.1891C21.7157 12.7852 22.2004 13.2678 22.7964 13.2666C23.3927 13.2654 23.8753 12.7811 23.8744 12.185C23.8733 11.589 23.3886 11.1061 22.7923 11.1073C22.196 11.1084 21.7134 11.5931 21.7146 12.1891ZM13.3789 17.0087C13.3838 19.5612 15.4568 21.6257 18.0086 21.6208C20.5607 21.6158 22.6264 19.5434 22.6214 16.991C22.6165 14.4394 20.5432 12.3737 17.9908 12.3787C15.439 12.3836 13.3739 14.4569 13.3789 17.0087ZM14.9999 17.0055C14.997 15.3489 16.3377 14.0032 17.994 14.0003C19.6506 13.9971 20.9966 15.3373 20.9998 16.9942C21.0031 18.6511 19.6623 19.9965 18.0054 19.9997C16.3491 20.0029 15.0031 18.6624 14.9999 17.0055Z" fill="white"/>
</mask>
<g mask="url(#mask0_71_9994)">
<mask id="mask1_71_9994" style="mask-type:luminance" maskUnits="userSpaceOnUse" x="8" y="7" width="20" height="20">
<path d="M27.7125 7.29492H8.27246V26.7352H27.7125V7.29492Z" fill="white"/>
</mask>
<g mask="url(#mask1_71_9994)">
<mask id="mask2_71_9994" style="mask-type:luminance" maskUnits="userSpaceOnUse" x="8" y="7" width="20" height="20">
<path d="M27.8026 7.20508H8.18262V26.8253H27.8026V7.20508Z" fill="white"/>
</mask>
<g mask="url(#mask2_71_9994)">
<mask id="mask3_71_9994" style="mask-type:luminance" maskUnits="userSpaceOnUse" x="8" y="7" width="20" height="20">
<path d="M27.8026 7.20508H8.18262V26.8253H27.8026V7.20508Z" fill="white"/>
</mask>
<g mask="url(#mask3_71_9994)">
<rect x="8.17627" y="7.20215" width="19.6301" height="19.6301" fill="#00222E"/>
</g>
</g>
</g>
</g>
</svg>
