<svg width="35" height="35" viewBox="0 0 35 35" fill="none" xmlns="http://www.w3.org/2000/svg">
<circle cx="17.5" cy="17.5" r="17.5" fill="#F2F2F2"/>
<path d="M29.4664 11.346C29.1923 10.3241 28.3846 9.51944 27.3588 9.24634C25.4997 8.75 18.0448 8.75 18.0448 8.75C18.0448 8.75 10.59 8.75 8.73082 9.24634C7.70513 9.51944 6.89729 10.3241 6.62316 11.346C6.125 13.1982 6.125 17.0625 6.125 17.0625C6.125 17.0625 6.125 20.9268 6.62316 22.7791C6.89729 23.8009 7.70513 24.6055 8.73082 24.8788C10.59 25.375 18.0448 25.375 18.0448 25.375C18.0448 25.375 25.4997 25.375 27.3588 24.8788C28.3846 24.6055 29.1923 23.8009 29.4664 22.7791C29.9646 20.9268 29.9646 17.0625 29.9646 17.0625C29.9646 17.0625 29.9646 13.1982 29.4664 11.346Z" fill="#00222E"/>
<path d="M15.6064 20.5713L21.8373 17.0629L15.6064 13.5543V20.5713Z" fill="#F2F2F2"/>
</svg>
